<?xml version="1.0" encoding="UTF-8"?>
<svg version="1.1" xmlns="http://www.w3.org/2000/svg" width="300" height="48">
<path d="M0 0 C1.98 0 3.96 0 6 0 C6 12.87 6 25.74 6 39 C12.93 39.33 19.86 39.66 27 40 C27.33 38.35 27.66 36.7 28 35 C28.89752362 32.68919858 29.84898932 30.39904598 30.8359375 28.125 C31.11595612 27.47805176 31.39597473 26.83110352 31.68447876 26.16455078 C32.27556818 24.80203122 32.86907044 23.44055614 33.46484375 22.08007812 C34.3709653 20.00922094 35.26806416 17.93462911 36.1640625 15.859375 C40.97542424 4.79409391 40.97542424 4.79409391 44 0 C46.92657085 2.5027006 48.10009167 5.13218589 49.55859375 8.6640625 C50.02716797 9.78683594 50.49574219 10.90960938 50.97851562 12.06640625 C51.45998047 13.24074219 51.94144531 14.41507813 52.4375 15.625 C53.39382223 17.92998179 54.35084083 20.23467481 55.30859375 22.5390625 C55.99091064 24.19083496 55.99091064 24.19083496 56.68701172 25.87597656 C58.16222422 29.38598384 59.71713779 32.85306814 61.32055664 36.30615234 C62 38 62 38 62 40 C63.65 40 65.3 40 67 40 C67 26.8 67 13.6 67 0 C71.10474364 2.05237182 73.14134966 4.22891492 75.9375 7.6875 C76.90133272 8.85370091 77.86622377 10.01902774 78.83203125 11.18359375 C79.59507568 12.10760986 79.59507568 12.10760986 80.37353516 13.05029297 C83.24361726 16.49077266 86.18573145 19.86863805 89.125 23.25 C89.693396 23.90572998 90.26179199 24.56145996 90.84741211 25.23706055 C93.3567016 28.18009527 93.3567016 28.18009527 96 31 C96.33 20.77 96.66 10.54 97 0 C100.939375 -0.04125 104.87875 -0.0825 108.9375 -0.125 C110.16073975 -0.14320801 111.38397949 -0.16141602 112.64428711 -0.18017578 C121.70571719 -0.22577343 129.74493323 0.06403628 137 6 C142.18418841 11.22738998 144.28693115 15.95875083 144.375 23.3125 C144.2429928 30.19240472 143.00931597 34.59452091 138.45703125 39.74609375 C131.73657252 46.15898 123.84032455 46.30013266 115 46.125 C112.03 46.08375 109.06 46.0425 106 46 C106 34.45 106 22.9 106 11 C107.65 11 109.3 11 111 11 C111 20.57 111 30.14 111 40 C124.54976554 39.81501341 124.54976554 39.81501341 135.5 33.625 C137.78362234 28.10624601 137.74137208 22.88604501 137 17 C134.87308108 12.43106306 132.53436979 10.15382565 128 8 C124.98536586 7.09393407 122.15531284 6.81760482 119.015625 6.68359375 C117.75153809 6.62643188 117.75153809 6.62643188 116.46191406 6.56811523 C115.40198242 6.52501221 114.34205078 6.48190918 113.25 6.4375 C108.17625 6.2209375 108.17625 6.2209375 103 6 C103 19.2 103 32.4 103 46 C99.13419556 44.06709778 97.59073861 42.72533995 94.8125 39.5625 C94.02746094 38.66917969 93.24242187 37.77585938 92.43359375 36.85546875 C89.34252316 33.22854644 86.31979006 29.55146272 83.3359375 25.8359375 C80.30473106 22.15591096 77.13954168 18.58804764 74 15 C73.67 25.23 73.34 35.46 73 46 C68.38 46 63.76 46 59 46 C54.66576036 37.59688234 50.72477931 29.20698985 47.22241211 20.42407227 C46.03545199 16.95592577 46.03545199 16.95592577 44 14 C43.61142822 14.89831543 43.22285645 15.79663086 42.82250977 16.72216797 C41.38248556 20.05086458 39.94172162 23.37924057 38.50073242 26.70751953 C37.87683205 28.14883816 37.25313309 29.59024399 36.62963867 31.03173828 C35.7340894 33.1021171 34.83781939 35.17218259 33.94140625 37.2421875 C33.6622084 37.88807831 33.38301056 38.53396912 33.09535217 39.19943237 C31.11387171 43.77225659 31.11387171 43.77225659 30 46 C20.1 46 10.2 46 0 46 C0 30.82 0 15.64 0 0 Z " fill="#FCFCFC" transform="translate(154,1)"/>
<path d="M0 0 C2.97 0 5.94 0 9 0 C9 5.61 9 11.22 9 17 C13.62 17 18.24 17 23 17 C23 11.39 23 5.78 23 0 C25.97 0 28.94 0 32 0 C32 15.18 32 30.36 32 46 C29.03 46 26.06 46 23 46 C23 39.4 23 32.8 23 26 C18.38 26 13.76 26 9 26 C9 32.6 9 39.2 9 46 C6.03 46 3.06 46 0 46 C0 30.82 0 15.64 0 0 Z " fill="#FDFDFD" transform="translate(106,1)"/>
<path d="M0 0 C3.08079586 1.67085508 5.86036498 3.53512433 8.625 5.6875 C8.08273019 9.48338866 6.42372437 11.15961993 3.625 13.6875 C1.39459388 12.61360076 -0.52496013 11.57282461 -2.5 10.0625 C-6.7619351 8.02418321 -10.73038883 8.12127063 -15.375 8.6875 C-19.08622736 10.26674568 -21.45126148 12.12858373 -23.375 15.6875 C-24.62092893 21.02719543 -24.66476811 24.92721219 -22.4375 29.98828125 C-20.55728147 32.99524839 -18.73975833 33.70866121 -15.375 34.6875 C-10.1851174 35.35416785 -6.55920358 35.3549602 -1.9375 32.75 C-1.091875 32.069375 -0.24625 31.38875 0.625 30.6875 C1.615 30.3575 2.605 30.0275 3.625 29.6875 C6.125 32 6.125 32 8.625 34.6875 C8.625 35.6775 8.625 36.6675 8.625 37.6875 C6.796875 39.22265625 6.796875 39.22265625 4.375 40.75 C3.58609375 41.25660156 2.7971875 41.76320312 1.984375 42.28515625 C1.20578125 42.74792969 0.4271875 43.21070313 -0.375 43.6875 C-1.00664063 44.06777344 -1.63828125 44.44804688 -2.2890625 44.83984375 C-7.83206657 47.09233791 -14.71102941 46.67604025 -20.23828125 44.625 C-26.81032132 40.95502922 -31.96375214 35.92124358 -34.375 28.6875 C-35.21473376 20.51338275 -35.12985971 13.72168817 -30.36328125 6.81640625 C-22.2907244 -1.82709764 -10.81059327 -5.33322601 0 0 Z " fill="#FCFCFC" transform="translate(93.375,2.3125)"/>
<path d="M0 0 C8.58 0 17.16 0 26 0 C26 3.3 26 6.6 26 10 C23.36 10 20.72 10 18 10 C18 21.88 18 33.76 18 46 C14.7 46 11.4 46 8 46 C8 34.12 8 22.24 8 10 C5.36 10 2.72 10 0 10 C0 6.7 0 3.4 0 0 Z " fill="#FBFBFB" transform="translate(2,1)"/>
<path d="M0 0 C8.25 0 16.5 0 25 0 C25 3.3 25 6.6 25 10 C16.75 10 8.5 10 0 10 C0 6.7 0 3.4 0 0 Z " fill="#FEFEFE" transform="translate(30,37)"/>
<path d="M0 0 C8.25 0 16.5 0 25 0 C25 3.3 25 6.6 25 10 C16.75 10 8.5 10 0 10 C0 6.7 0 3.4 0 0 Z " fill="#FDFDFD" transform="translate(30,1)"/>
<path d="M0 0 C8.25 0 16.5 0 25 0 C25 2.97 25 5.94 25 9 C16.75 9 8.5 9 0 9 C0 6.03 0 3.06 0 0 Z " fill="#FEFEFE" transform="translate(30,18)"/>
</svg>
